<mxfile host="app.diagrams.net" agent="Mozilla/5.0 (Windows NT 10.0; Win64; x64) AppleWebKit/537.36 (KHTML, like Gecko) Chrome/130.0.0.0 Safari/537.36" version="24.7.14">
  <diagram name="Page-1" id="vqaHSXlDMtZzyQxlMvkH">
    <mxGraphModel grid="1" page="1" gridSize="10" guides="1" tooltips="1" connect="1" arrows="1" fold="1" pageScale="1" pageWidth="850" pageHeight="1100" math="0" shadow="0">
      <root>
        <mxCell id="0" />
        <mxCell id="1" parent="0" />
        <mxCell id="D1QyhgatuBxyJKoj4ixN-1" value="" style="shape=actor;whiteSpace=wrap;html=1;" vertex="1" parent="1">
          <mxGeometry x="230" y="200" width="40" height="60" as="geometry" />
        </mxCell>
        <mxCell id="D1QyhgatuBxyJKoj4ixN-2" value="" style="sketch=0;outlineConnect=0;fontColor=#232F3E;gradientColor=none;fillColor=#232F3D;strokeColor=none;dashed=0;verticalLabelPosition=bottom;verticalAlign=top;align=center;html=1;fontSize=12;fontStyle=0;aspect=fixed;pointerEvents=1;shape=mxgraph.aws4.traditional_server;" vertex="1" parent="1">
          <mxGeometry x="460" y="191" width="45" height="78" as="geometry" />
        </mxCell>
        <mxCell id="D1QyhgatuBxyJKoj4ixN-22" style="edgeStyle=orthogonalEdgeStyle;rounded=0;orthogonalLoop=1;jettySize=auto;html=1;exitX=0;exitY=0.5;exitDx=0;exitDy=0;exitPerimeter=0;" edge="1" parent="1" source="D1QyhgatuBxyJKoj4ixN-3" target="D1QyhgatuBxyJKoj4ixN-2">
          <mxGeometry relative="1" as="geometry">
            <Array as="points">
              <mxPoint x="540" y="329" />
              <mxPoint x="540" y="250" />
            </Array>
          </mxGeometry>
        </mxCell>
        <mxCell id="D1QyhgatuBxyJKoj4ixN-3" value="" style="sketch=0;points=[[0,0,0],[0.25,0,0],[0.5,0,0],[0.75,0,0],[1,0,0],[0,1,0],[0.25,1,0],[0.5,1,0],[0.75,1,0],[1,1,0],[0,0.25,0],[0,0.5,0],[0,0.75,0],[1,0.25,0],[1,0.5,0],[1,0.75,0]];outlineConnect=0;fontColor=#232F3E;fillColor=#C925D1;strokeColor=#ffffff;dashed=0;verticalLabelPosition=bottom;verticalAlign=top;align=center;html=1;fontSize=12;fontStyle=0;aspect=fixed;shape=mxgraph.aws4.resourceIcon;resIcon=mxgraph.aws4.documentdb_with_mongodb_compatibility;" vertex="1" parent="1">
          <mxGeometry x="578" y="290" width="78" height="78" as="geometry" />
        </mxCell>
        <mxCell id="D1QyhgatuBxyJKoj4ixN-11" style="edgeStyle=orthogonalEdgeStyle;rounded=0;orthogonalLoop=1;jettySize=auto;html=1;exitX=1;exitY=0.5;exitDx=0;exitDy=0;exitPerimeter=0;" edge="1" parent="1">
          <mxGeometry relative="1" as="geometry">
            <mxPoint x="393" y="220" as="sourcePoint" />
            <mxPoint x="460" y="220.10000000000002" as="targetPoint" />
          </mxGeometry>
        </mxCell>
        <mxCell id="D1QyhgatuBxyJKoj4ixN-4" value="" style="outlineConnect=0;dashed=0;verticalLabelPosition=bottom;verticalAlign=top;align=center;html=1;shape=mxgraph.aws3.management_console;fillColor=#D2D3D3;gradientColor=none;" vertex="1" parent="1">
          <mxGeometry x="330" y="198.5" width="63" height="63" as="geometry" />
        </mxCell>
        <mxCell id="D1QyhgatuBxyJKoj4ixN-19" style="edgeStyle=orthogonalEdgeStyle;rounded=0;orthogonalLoop=1;jettySize=auto;html=1;exitX=0;exitY=0;exitDx=0;exitDy=0;" edge="1" parent="1" source="D1QyhgatuBxyJKoj4ixN-7" target="D1QyhgatuBxyJKoj4ixN-2">
          <mxGeometry relative="1" as="geometry">
            <Array as="points">
              <mxPoint x="592" y="127" />
              <mxPoint x="560" y="127" />
              <mxPoint x="560" y="210" />
            </Array>
          </mxGeometry>
        </mxCell>
        <mxCell id="D1QyhgatuBxyJKoj4ixN-5" value="" style="outlineConnect=0;dashed=0;verticalLabelPosition=bottom;verticalAlign=top;align=center;html=1;shape=mxgraph.aws3.traditional_server;fillColor=#7D7C7C;gradientColor=none;" vertex="1" parent="1">
          <mxGeometry x="578" y="80" width="74" height="93" as="geometry" />
        </mxCell>
        <mxCell id="D1QyhgatuBxyJKoj4ixN-7" value="" style="shape=image;html=1;verticalAlign=top;verticalLabelPosition=bottom;labelBackgroundColor=#ffffff;imageAspect=0;aspect=fixed;image=https://cdn2.iconfinder.com/data/icons/weather-color-2/500/weather-07-128.png" vertex="1" parent="1">
          <mxGeometry x="592" y="133" width="50" height="50" as="geometry" />
        </mxCell>
        <mxCell id="D1QyhgatuBxyJKoj4ixN-10" style="edgeStyle=orthogonalEdgeStyle;rounded=0;orthogonalLoop=1;jettySize=auto;html=1;exitX=0.9;exitY=0.5;exitDx=0;exitDy=0;exitPerimeter=0;entryX=0;entryY=0.5;entryDx=0;entryDy=0;entryPerimeter=0;" edge="1" parent="1" source="D1QyhgatuBxyJKoj4ixN-1" target="D1QyhgatuBxyJKoj4ixN-4">
          <mxGeometry relative="1" as="geometry" />
        </mxCell>
        <mxCell id="D1QyhgatuBxyJKoj4ixN-12" style="edgeStyle=orthogonalEdgeStyle;rounded=0;orthogonalLoop=1;jettySize=auto;html=1;entryX=0.026;entryY=0.385;entryDx=0;entryDy=0;entryPerimeter=0;" edge="1" parent="1" source="D1QyhgatuBxyJKoj4ixN-2" target="D1QyhgatuBxyJKoj4ixN-3">
          <mxGeometry relative="1" as="geometry">
            <mxPoint x="480" y="240.0044827586207" as="sourcePoint" />
            <mxPoint x="553" y="330" as="targetPoint" />
            <Array as="points">
              <mxPoint x="550" y="240" />
              <mxPoint x="550" y="320" />
            </Array>
          </mxGeometry>
        </mxCell>
        <mxCell id="D1QyhgatuBxyJKoj4ixN-13" style="edgeStyle=orthogonalEdgeStyle;rounded=0;orthogonalLoop=1;jettySize=auto;html=1;entryX=0;entryY=0.5;entryDx=0;entryDy=0;entryPerimeter=0;" edge="1" parent="1">
          <mxGeometry relative="1" as="geometry">
            <mxPoint x="505" y="200.0044827586207" as="sourcePoint" />
            <mxPoint x="578" y="116.46999999999994" as="targetPoint" />
            <Array as="points">
              <mxPoint x="550" y="199.97" />
              <mxPoint x="550" y="116.97" />
            </Array>
          </mxGeometry>
        </mxCell>
        <mxCell id="D1QyhgatuBxyJKoj4ixN-14" value="User" style="text;html=1;align=center;verticalAlign=middle;whiteSpace=wrap;rounded=0;" vertex="1" parent="1">
          <mxGeometry x="225" y="260" width="50" height="20" as="geometry" />
        </mxCell>
        <mxCell id="D1QyhgatuBxyJKoj4ixN-15" value="Frontend" style="text;html=1;align=center;verticalAlign=middle;whiteSpace=wrap;rounded=0;" vertex="1" parent="1">
          <mxGeometry x="330" y="260" width="60" height="30" as="geometry" />
        </mxCell>
        <mxCell id="D1QyhgatuBxyJKoj4ixN-16" value="Node.js&lt;div&gt;Server&lt;/div&gt;" style="text;html=1;align=center;verticalAlign=middle;whiteSpace=wrap;rounded=0;" vertex="1" parent="1">
          <mxGeometry x="452.5" y="269" width="60" height="30" as="geometry" />
        </mxCell>
        <mxCell id="D1QyhgatuBxyJKoj4ixN-17" value="Mongo&lt;div&gt;Database&lt;/div&gt;" style="text;html=1;align=center;verticalAlign=middle;whiteSpace=wrap;rounded=0;" vertex="1" parent="1">
          <mxGeometry x="585" y="368" width="60" height="30" as="geometry" />
        </mxCell>
        <mxCell id="D1QyhgatuBxyJKoj4ixN-18" value="OpenWeatherMap&lt;div&gt;Server&lt;/div&gt;" style="text;html=1;align=center;verticalAlign=middle;whiteSpace=wrap;rounded=0;" vertex="1" parent="1">
          <mxGeometry x="574.5" y="50" width="85" height="30" as="geometry" />
        </mxCell>
        <mxCell id="D1QyhgatuBxyJKoj4ixN-23" style="edgeStyle=orthogonalEdgeStyle;rounded=0;orthogonalLoop=1;jettySize=auto;html=1;entryX=1;entryY=0.5;entryDx=0;entryDy=0;entryPerimeter=0;" edge="1" parent="1" source="D1QyhgatuBxyJKoj4ixN-2" target="D1QyhgatuBxyJKoj4ixN-4">
          <mxGeometry relative="1" as="geometry" />
        </mxCell>
      </root>
    </mxGraphModel>
  </diagram>
</mxfile>
